PathFileType	4	(X/Y/Z)	/Users/niels/Desktop/University/Third Semester/Perception and Action/Exam/Gymnastics Motion Tracking/Code for Gym Tracking/Analyzed Data/Webcam_Backflip/id1_9_trajectory_Sports2D/id1_9_trajectory_Sports2D_px_person00.trc
DataRate	CameraRate	NumFrames	NumMarkers	Units	OrigDataRate	OrigDataStartFrame	OrigNumFrames
29.714285714285715	29.714285714285715	12	22	m	29.714285714285715	39	105
Frame#	Time	Hip			RHip			RKnee			RAnkle			RBigToe			RSmallToe			RHeel			LHip			LKnee			LAnkle			LBigToe			LSmallToe			LHeel			Neck			Head			Nose			RShoulder			RElbow			RWrist			LShoulder			LElbow			LWrist		
		X1	Y1	Z1	X2	Y2	Z2	X3	Y3	Z3	X4	Y4	Z4	X5	Y5	Z5	X6	Y6	Z6	X7	Y7	Z7	X8	Y8	Z8	X9	Y9	Z9	X10	Y10	Z10	X11	Y11	Z11	X12	Y12	Z12	X13	Y13	Z13	X14	Y14	Z14	X15	Y15	Z15	X16	Y16	Z16	X17	Y17	Z17	X18	Y18	Z18	X19	Y19	Z19	X20	Y20	Z20	X21	Y21	Z21	X22	Y22	Z22
39	1.3125	1.2653475309682394	-0.4552510311971676	0.0	1.260798640119563	-0.4513045980582309	0.0	1.2588025766932565	-0.5763149303087871	0.0	1.2732142517273413	-0.6937811029930412	0.0	1.2400219833799375	-0.7356560759228714	0.0	1.244072215509663	-0.729349379134704	0.0	1.2813406760555182	-0.7076982664525208	0.0	1.2692134238264612	-0.4518665505077867	0.0	1.2272440659074586	-0.5705885548869073	0.0	1.1997651695208071	-0.6896102379820428	0.0	1.1512902069193116	-0.7191198029770947	0.0	1.161291654907913	-0.7218683503884011	0.0	1.20584214846856	-0.7067777897302858	0.0	1.249199592022957	-0.29844734164351566	0.0	1.2318563247863201	-0.21733332323040952	0.0	1.2118723584365032	-0.26303669203994917	0.0	1.2382759606181228	-0.314912621174175	0.0	1.2282433112159186	-0.3772656868393543	0.0	1.186839522935323	-0.41765545503280377	0.0	1.2631066350786646	-0.30693564116540034	0.0	1.2853521508333157	-0.36378601607171773	0.0	1.3025496700807262	-0.4201536701366724	0.0
40	1.346153846153846	1.2712974706527762	-0.4499962441227337	0.0	1.2683987392851637	-0.4461379552239988	0.0	1.271732680962288	-0.571250434318291	0.0	1.2912307291637242	-0.6875160862393441	0.0	1.2619706475040382	-0.7323058027169136	0.0	1.266133880221966	-0.7255215488504128	0.0	1.3000343578381057	-0.7003089217525575	0.0	1.273603074378464	-0.44642408310708664	0.0	1.2311670776568562	-0.5642924901585079	0.0	1.199606794456008	-0.6820431696243908	0.0	1.1518371910484224	-0.7117414652264926	0.0	1.1607388872823758	-0.7141295401125377	0.0	1.205061390223114	-0.6991348323290201	0.0	1.2548758018048736	-0.2918665237680342	0.0	1.2356666883659264	-0.21168762868809285	0.0	1.216744629247429	-0.2574915397943749	0.0	1.243807000045457	-0.3083590421781141	0.0	1.2373176601130271	-0.37190638332998865	0.0	1.2005893459138655	-0.414785349959437	0.0	1.2687600970857558	-0.29944582251448043	0.0	1.2948164747261248	-0.3563767127827128	0.0	1.3185594471758704	-0.4139870829418658	0.0
41	1.3798076923076923	1.2773391360634392	-0.44875038922508736	0.0	1.2759229199561324	-0.4447423154232505	0.0	1.2836813477276627	-0.5696119354471614	0.0	1.308133064110227	-0.6848033797374561	0.0	1.2823567022282638	-0.7310605027970584	0.0	1.2868510358647234	-0.7239801475855905	0.0	1.3176472054966408	-0.6969735609610628	0.0	1.2783551628843421	-0.4450368639684402	0.0	1.234999939198896	-0.5620053240841004	0.0	1.200823901757348	-0.6787759775559619	0.0	1.1534306924602042	-0.7081888556273207	0.0	1.1618192955326154	-0.7104286252862263	0.0	1.205987031138942	-0.6957335851181771	0.0	1.2605122512378988	-0.2893294730648563	0.0	1.2396238466185039	-0.2100708594705226	0.0	1.2219183832855194	-0.2559806043843669	0.0	1.2494071543986813	-0.3056334465263675	0.0	1.2458258553693116	-0.36988804632879085	0.0	1.2128265151076716	-0.41347859740992265	0.0	1.2746841556045987	-0.29639340789692675	0.0	1.3034915209711715	-0.3530372589769467	0.0	1.331962321184667	-0.41001331659572166	0.0
42	1.4134615384615383	1.283471690765941	-0.45137401529392657	0.0	1.2833739226889127	-0.447044485265896	0.0	1.2948705805677587	-0.5714690377939409	0.0	1.323637571824217	-0.6857902280849201	0.0	1.3004519381883637	-0.732094476380857	0.0	1.3053875794346828	-0.7249453388824851	0.0	1.333673134231018	-0.6978854047092974	0.0	1.2836601105256789	-0.44762554787372044	0.0	1.2389900462749877	-0.5635862793622362	0.0	1.2032401053411506	-0.6798339898257674	0.0	1.1558060436977824	-0.7086184177213367	0.0	1.1640751968592828	-0.7110183514077909	0.0	1.2083154577753783	-0.6966709817495634	0.0	1.2661441950269958	-0.2905302675693291	0.0	1.243966352476982	-0.21230613510123905	0.0	1.227628878824688	-0.2580833905348343	0.0	1.2552909575459836	-0.30642341137657547	0.0	1.2544010326501758	-0.3704203668101131	0.0	1.2243098547252427	-0.4127471116780376	0.0	1.2807979780994048	-0.29768771251952736	0.0	1.3116172507766082	-0.35364421040934835	0.0	1.3434345728095658	-0.40849281369661583	0.0
43	1.4471153846153846	1.2897436104372488	-0.4577806087416662	0.0	1.2908392602753704	-0.45303498941472964	0.0	1.305532479615876	-0.5770135763157005	0.0	1.3377107205282404	-0.6907485027741961	0.0	1.3159379654191672	-0.7357122291381809	0.0	1.3213408501032553	-0.7287681359005347	0.0	1.347998995158443	-0.7032212923677377	0.0	1.2896324021378291	-0.4541173927455217	0.0	1.243312676703943	-0.5689443721382139	0.0	1.2068039880451384	-0.6852631920416334	0.0	1.159198252056033	-0.7132287292789108	0.0	1.1673983674159933	-0.7161167376736735	0.0	1.2118604963272273	-0.7020649251851229	0.0	1.271952622586094	-0.29536942379341563	0.0	1.2488696646400281	-0.21838588416567586	0.0	1.234013589876559	-0.2635891952129856	0.0	1.2618695974732306	-0.31047131300632874	0.0	1.2637236153677784	-0.3717817093351504	0.0	1.2362927546915392	-0.4101996876945312	0.0	1.2870511239981983	-0.3031616856536679	0.0	1.3194967241607647	-0.35794157623864137	0.0	1.3536573198865167	-0.409323103278375	0.0
44	1.4807692307692306	1.2962788691764482	-0.46796160248939006	0.0	1.2984546475638539	-0.46272061830612254	0.0	1.315811448126477	-0.5864938486456249	0.0	1.350469180712694	-0.6999461783471534	0.0	1.3289150088745334	-0.742239730635422	0.0	1.3347641388779405	-0.7358189115934505	0.0	1.3607738371613016	-0.7131499423515026	0.0	1.2963238217658677	-0.46443189419419134	0.0	1.2480304202087114	-0.5780546518052028	0.0	1.2116218456903778	-0.695136216426439	0.0	1.164207617311705	-0.7221576287140856	0.0	1.1720935342815486	-0.7258160111070437	0.0	1.216641575282082	-0.7120432469850636	0.0	1.2781677591365517	-0.3040626573122104	0.0	1.254448787828894	-0.22846080695312804	0.0	1.2411199988635582	-0.27261722539420885	0.0	1.269458457230374	-0.31771584102020484	0.0	1.2743033845407281	-0.37143778273355643	0.0	1.250236319868154	-0.4023666259754807	0.0	1.2935724727246845	-0.31277732091929494	0.0	1.3275167474506824	-0.3656512522225942	0.0	1.3633938372421543	-0.4121681909713187	0.0
45	1.5144230769230769	1.3032132164172574	-0.48200541409647346	0.0	1.3063674038741646	-0.47616797374304215	0.0	1.325744217023209	-0.6001710344286544	0.0	1.3621257139423493	-0.7135391426629638	0.0	1.3398926027187632	-0.7520769496249818	0.0	1.3461329050563018	-0.7465029843563045	0.0	1.3723132848112882	-0.7277936474861855	0.0	1.3036824275553882	-0.47856344862700373	0.0	1.2530692838395636	-0.5910108749630265	0.0	1.217860216047776	-0.7095821842546157	0.0	1.1714128884922974	-0.735465407612408	0.0	1.1785691901943465	-0.7400694001327215	0.0	1.2228495025705342	-0.7267779179379567	0.0	1.284938623507528	-0.3170912991427899	0.0	1.2607969044197078	-0.24268012322247876	0.0	1.2489074007956338	-0.28557488368878353	0.0	1.278059747809408	-0.32840488878954954	0.0	1.2862116882727979	-0.3671228361526563	0.0	1.267408751258651	-0.38620869684567344	0.0	1.3006001250359958	-0.3267397270481147	0.0	1.3360650295591991	-0.3765597704854406	0.0	1.3734486809966604	-0.41667766467827555	0.0
46	1.548076923076923	1.3106032036035904	-0.5000459141498854	0.0	1.3146802482630884	-0.4935783528154607	0.0	1.3353063213995313	-0.61823729166962	0.0	1.372926150648785	-0.7314862636343147	0.0	1.3495889357218624	-0.7656626106346427	0.0	1.3561594916794115	-0.7611814797604426	0.0	1.382993978648948	-0.7470617998172133	0.0	1.311552937667444	-0.4966601587383234	0.0	1.2582505252133924	-0.6079775909698162	0.0	1.2255856942872176	-0.7287202434597807	0.0	1.1809274558386034	-0.7531105538232479	0.0	1.186924491722851	-0.7586817554798426	0.0	1.2306725632295206	-0.7463988905152897	0.0	1.292267340334984	-0.33495208157410084	0.0	1.2678983331902276	-0.26105885764961034	0.0	1.2572208323963927	-0.3029378694650363	0.0	1.2873641545273466	-0.3430931372233516	0.0	1.2989934434898294	-0.3590625445635741	0.0	1.2882674270638879	-0.3622437816315397	0.0	1.3082316451586355	-0.3453311539674919	0.0	1.3453854121762912	-0.39054405295397393	0.0	1.384388716340766	-0.42272676901392364	0.0
47	1.5817307692307692	1.3184335585993516	-0.5221763165595903	0.0	1.3233318184151293	-0.5152167115272323	0.0	1.3444167977700325	-0.6406632130271576	0.0	1.3830249765294294	-0.7534593066880717	0.0	1.3585457685225277	-0.7832685253685626	0.0	1.3654426354118652	-0.7799247931080094	0.0	1.3930845281000408	-0.770433414228443	0.0	1.3197732600120604	-0.5189344260680927	0.0	1.2633743197846443	-0.6289387100806959	0.0	1.2346262643371508	-0.7523740224730231	0.0	1.1922007911219639	-0.7747679792768812	0.0	1.1967917354900535	-0.7811896777691707	0.0	1.2400205609454902	-0.7706255301531479	0.0	1.299980191215496	-0.3578205604427601	0.0	1.275474349703325	-0.2834728500101011	0.0	1.2657391685453656	-0.32491793362452076	0.0	1.2968012829683047	-0.3625140814142594	0.0	1.3118352857295066	-0.3518352562243238	0.0	1.3114363548791803	-0.33743828268602916	0.0	1.3162896476551245	-0.36861910551849547	0.0	1.3554772421985073	-0.40762323898052905	0.0	1.3962041083069052	-0.43069216709234687	0.0
48	1.6153846153846154	1.3266900055858495	-0.5482836867020456	0.0	1.3320525551047582	-0.541113169729849	0.0	1.3528680106753088	-0.6669650059769089	0.0	1.3923772871191775	-0.7787266859845572	0.0	1.3668527110588775	-0.8046543822945702	0.0	1.3742102069875937	-0.802171550278499	0.0	1.4026044202635304	-0.7968205609872936	0.0	1.3282868631571003	-0.5453255599644378	0.0	1.268302654968861	-0.6534140286709382	0.0	1.2445103795013057	-0.7796919779867892	0.0	1.2041164402273026	-0.7995825072678493	0.0	1.2074550496258134	-0.8066527513452101	0.0	1.2503457222476935	-0.7983292644762945	0.0	1.3077330153987299	-0.38524247616550483	0.0	1.2829809042680473	-0.30961512361592547	0.0	1.273895207450531	-0.3512216553227395	0.0	1.3055923443047557	-0.38720719574411033	0.0	1.3238903355345863	-0.35298764957223405	0.0	1.3331542459949226	-0.32316185158601224	0.0	1.3243904845286136	-0.396196748230885	0.0	1.3660906187162007	-0.4280240176972438	0.0	1.4081794693244745	-0.4416704760815047	0.0
49	1.6490384615384615	1.335313767627391	-0.5777216596686836	0.0	1.3405018324266482	-0.5706784094363357	0.0	1.360302547183031	-0.6959968074731878	0.0	1.4007703928616047	-0.8060956588422048	0.0	1.3742271804312123	-0.8287561088483828	0.0	1.3824019963655036	-0.826556658483231	0.0	1.4113277920266236	-0.8246679592280398	0.0	1.3370814558253064	-0.5750892121825054	0.0	1.2730105994313003	-0.6803359394229854	0.0	1.2544950396720338	-0.8089955576385187	0.0	1.2152890111636205	-0.8260483752960793	0.0	1.2180328809066703	-0.8335451603133109	0.0	1.2607131726575223	-0.8275341726615062	0.0	1.3150733711015383	-0.4159304348936698	0.0	1.2898101993688578	-0.3388136453823222	0.0	1.2809343915911175	-0.380923332589065	0.0	1.3130113934307495	-0.4168580556550838	0.0	1.3346038848168582	-0.36866045248262114	0.0	1.3491124602754343	-0.3285287328352201	0.0	1.3321007036646129	-0.4269429574798481	0.0	1.3766859795744124	-0.4520438232218523	0.0	1.4190376995212235	-0.45735800706178187	0.0
50	1.6826923076923077	1.3440737714994988	-0.6089356716576382	0.0	1.3484061861706593	-0.6023636362878525	0.0	1.3663065067520335	-0.7259202511607373	0.0	1.4079979184342233	-0.8338818659981486	0.0	1.3803699465930785	-0.8537042167181074	0.0	1.3898984145770017	-0.8511309094648912	0.0	1.4189842562119679	-0.852143893010557	0.0	1.345970666402637	-0.6065544965352975	0.0	1.2775602843494522	-0.7080467116359404	0.0	1.2637023695906286	-0.8379714088161925	0.0	1.224588086409638	-0.8520607129802327	0.0	1.2277423049944118	-0.8598272192858386	0.0	1.2700959212486824	-0.8558683725160936	0.0	1.3215825034323672	-0.4478082462104896	0.0	1.2955258982186344	-0.3698206100525495	0.0	1.286271215328298	-0.41239352193226336	0.0	1.3188319574486085	-0.44978964664159465	0.0	1.343881994343899	-0.40023186947768113	0.0	1.3576445762572231	-0.35581107323846317	0.0	1.3390861626779564	-0.4589445018390833	0.0	1.3863528976536412	-0.47965435763682845	0.0	1.4273710982375774	-0.479488401822905	0.0
